<svg id="Icons" height="512" viewBox="0 0 60 60" width="512" xmlns="http://www.w3.org/2000/svg"><path d="m33 6v2h-6v-2a1 1 0 0 1 -1-1 4 4 0 0 1 4-4 4 4 0 0 1 4 4 1 1 0 0 1 -1 1z" fill="#d23743"/><path d="m55.92 41.51a28.339 28.339 0 0 1 3.02 9.11 4.866 4.866 0 0 1 .06.76 4.728 4.728 0 0 1 -.78 2.6 4.649 4.649 0 0 1 -2.1 1.73c-3.5 1.45-10.94 3.29-26.12 3.29s-22.62-1.84-26.12-3.29a4.687 4.687 0 0 1 -2.88-4.33 4.866 4.866 0 0 1 .06-.76 28.339 28.339 0 0 1 3.02-9.11z" fill="#262a33"/><path d="m30 43c16.54 0 23.772-1.034 26.529-1.615a1.865 1.865 0 0 0 1.471-1.828v-8.557a25 25 0 0 0 -25-25h-6a25 25 0 0 0 -25 25v8.557a1.865 1.865 0 0 0 1.471 1.828c2.757.581 9.989 1.615 26.529 1.615z" fill="#d23743"/><path d="m52 31v11.08a203.9 203.9 0 0 1 -22 .92 203.9 203.9 0 0 1 -22-.92v-11.08c0-13.81 9.15-25 20-25h4c10.85 0 20 11.19 20 25z" fill="#f94851"/><g fill="#c12f40"><circle cx="19" cy="16" r="2"/><circle cx="41" cy="16" r="2"/></g></svg>