<svg viewBox="0 0 512 512" xmlns="http://www.w3.org/2000/svg" xmlns:xlink="http://www.w3.org/1999/xlink"><linearGradient id="linear-gradient" gradientUnits="userSpaceOnUse" x2="512" y1="281.47" y2="281.47"><stop offset="0" stop-color="#cc3232"/><stop offset=".6" stop-color="#ef5a5a"/><stop offset="1" stop-color="#f47e67"/></linearGradient><g id="Layer_31" data-name="Layer 31"><path d="m410.08 308.16a101.92 101.92 0 1 0 101.92 101.92 101.92 101.92 0 0 0 -101.92-101.92zm48.8 123.58-38.88 38.9a14 14 0 0 1 -19.8 0l-38.9-38.9a14 14 0 0 1 19.8-19.8l15 15v-67.52a14 14 0 0 1 28 0v67.52l15-15a14 14 0 0 1 19.8 19.8zm-168.63 28.71a1894.08 1894.08 0 0 1 -220.86-7.32c-29.25-2.89-57.33-29.78-61-59.08a1170.83 1170.83 0 0 1 -.05-278.56c3.66-29.29 31.75-56.18 61-59.06q38.09-3.51 76.22-5.45a29.64 29.64 0 0 1 24.75 11c14.95 18.23 30.59 36.83 46.69 55.61a21.75 21.75 0 0 0 16.57 7.6q94.83-.25 189.59 4.89c30.62 1.84 58.24 27.66 60 57q3.33 58.07.93 116.19a130 130 0 0 0 -193.84 157.18z" fill="url(#linear-gradient)"/></g></svg>