<svg clip-rule="evenodd" fill-rule="evenodd" height="512" image-rendering="optimizeQuality" shape-rendering="geometricPrecision" text-rendering="geometricPrecision" viewBox="0 0 2667 2667" width="512" xmlns="http://www.w3.org/2000/svg"><g id="Layer_x0020_1"><circle cx="1333" cy="1333" fill="#ff291a" r="1333"/><path d="m1118 1174v-85c0-22 18-40 40-40h139v-68c0-55 45-100 100-100h141c11 0 20-9 20-20 0-6-2-11-5-15-4-3-9-5-14-5h-411c-55 0-100-46-100-101s45-100 100-100h283c22 0 40 18 40 40s-18 40-40 40h-283c-11 0-20 9-20 20s9 21 20 21h411c27 0 52 11 70 29s29 43 29 71c0 55-45 100-100 100h-141c-11 0-20 9-20 20v68h132c22 0 40 18 40 40v85zm-232 40c-111 0-213 45-287 119-73 74-119 175-119 287 0 112 46 214 119 287 74 74 176 120 287 120h894c112 0 214-46 287-120 74-73 120-175 120-287s-46-213-120-287c-73-74-175-119-287-119-298 0-596 0-894 0zm154 168h587c22 0 40 18 40 40v396c0 23-18 40-40 40h-587c-22 0-40-17-40-40v-396c0-22 18-40 40-40zm698 238c0-22 18-40 40-40s40 18 40 40-18 40-40 40-40-18-40-40zm229 40c-22 0-40-18-40-40s18-40 40-40 40 18 40 40-18 40-40 40zm-94 95c-22 0-40-18-40-40s18-40 40-40 40 18 40 40-18 40-40 40zm0-189c-22 0-40-18-40-40s18-40 40-40 40 18 40 40-18 40-40 40zm-1129-80h79v76l-41 49-38-49zm-18 95 48 41-48 37h-77v-78zm18 97 41-49 38 49v77h-79zm97-97h77v78h-77l-48-40z" fill="#fff" fill-rule="nonzero"/></g></svg>