<svg clip-rule="evenodd" fill-rule="evenodd" height="512" image-rendering="optimizeQuality" shape-rendering="geometricPrecision" text-rendering="geometricPrecision" viewBox="0 0 2.66666 2.66666" width="512" xmlns="http://www.w3.org/2000/svg"><g id="Layer_x0020_1"><circle cx="1.333" cy="1.333" fill="#f10" r="1.333"/><path d="m1.71715 2.09102h-.767606c-.0211024 0-.0381929-.0170945-.0381929-.0381929v-.127795h.843992v.127795c0 .0210984-.0170984.0381929-.0381929.0381929zm-.216114-.302512c.00383071 0 .00756299-.00121654.0106614-.0034685.00636614-.00462598.00905512-.0129055.00661024-.0203858l-.0603898-.184657.157402-.113886c.00637008-.00461024.00906693-.0128858.0066378-.0203661-.00243307-.0075-.00940945-.0125669-.0173504-.0125669l-.194268.00035827-.0596732-.184882c-.00242913-.00751575-.00942126-.0126024-.0173189-.0126024s-.0148898.00508661-.0173189.0126024l-.0596732.184882-.194315-.00035827c-.00788583 0-.0148701.00506693-.0173031.0125709-.00242913.00747638.00027165.0157559.0066378.0203622l.157402.113886-.0603898.184657c-.00244488.00747638.00020866.0157559.00658268.020378.00637402.00462598.0150551.0046378.0214252-.00000787l.156953-.114504.156969.114496c.00312598.00227953.00685433.00349213.0107205.00349213zm-.167689-.158697c-.0038622 0-.00759843.00120472-.0107205.00348031l-.122142.0890945.0469961-.143693c.00244882-.00748425-.00024016-.0157835-.00662205-.0204016l-.122484-.0886299.151189.0002874c.00800787.00001575.0148858-.00498031.0173465-.0125984l.0464409-.143866.0464331.143878c.00242126.00751575.00941732.0125984.0173661.0125984l.151169-.0002874-.122484.0886299c-.00637795.00461811-.00906693.0129173-.00662205.0204016l.0469961.143697-.122142-.0891024c-.00312598-.00227953-.00685433-.00348819-.0107205-.00348819zm-.421996.258827v-.681827l-.0467756.0445315-.278535-.345811.266394-.269996c.00466929-.00472047.0104921-.00815354.0168976-.00994488l.173323-.0485354c.011311-.00315748.0234724-.00095669.032937.0060315.0094685.00696457.0151969.0179213.0155276.0296693.00448819.158228.128701.230303.242228.230303.113512 0 .237748-.0720748.242228-.230303.00033071-.011748.00605906-.0227047.0155276-.0296693.00948425-.00697638.0216181-.00918898.032937-.0060315l.173307.0485354c.0063937.00179134.0122244.00522441.0168819.00994488l.268169.271783-.279157.345083-.0478976-.0455906v.681827h-.843992zm-.0732244-.612118-.0655236.0623819c-.00773228.00735827-.0182717.0111024-.0288543.0104528-.0106614-.00070472-.0205276-.00583465-.0272244-.0141654l-.227693-.282961c-.0121614-.0151181-.011063-.0369606.00257087-.0507795l.0689055-.0698386.277819.344909zm1.27-.343122.0671417.0680472c.0136339.0138189.0147362.0356457.00257087.0507795l-.227642.282965c-.00669685.00833071-.0165748.0134724-.0272402.0141654-.0106378.00063386-.021126-.00307874-.0288543-.0104528l-.0644094-.061311.278433-.344193z" fill="#fff"/></g></svg>